Coordinates
version=1
nRows=19
nColumns=24
inDegrees=yes

Units are S.I. units (second, meters, Newtons, ...)
Angles are in degrees.

endheader
time	pelvis_tilt	pelvis_list	pelvis_rotation	pelvis_tx	pelvis_ty	pelvis_tz	hip_flexion_r	hip_adduction_r	hip_rotation_r	knee_angle_r	ankle_angle_r	subtalar_angle_r	mtp_angle_r	hip_flexion_l	hip_adduction_l	hip_rotation_l	knee_angle_l	ankle_angle_l	subtalar_angle_l	mtp_angle_l	lumbar_extension	lumbar_bending	lumbar_rotation
      0.72900000	     -2.65351243	      8.89550173	     13.84197383	      0.07510171	      0.97553773	      0.27383328	     28.10884704	    -14.09837397	     -2.65128564	     -0.11720857	      9.48957109	    -13.71913758	     -0.53898328	    -22.42100380	      7.94039331	     16.28933290	     -3.92124701	      6.50683332	    -13.78297405	      1.25372101	     -1.54839608	    -10.84892550	     -4.08271135
      0.73316667	     -2.62328671	      8.82532852	     13.93770961	      0.08141759	      0.97499578	      0.27411887	     28.04847171	    -14.03786650	     -2.49517835	     -0.49260168	      9.60448064	    -13.90951714	     -3.66711137	    -22.58463776	      7.73624201	     16.12957322	     -4.29490837	      6.30745049	    -13.60365130	      8.34593218	     -1.53188702	    -10.74730447	     -4.25719414
      0.73733333	     -2.61851929	      8.75393926	     14.03300666	      0.08777710	      0.97446097	      0.27439820	     28.03454351	    -13.97712732	     -2.40749123	     -0.94229389	      9.62836840	    -14.04410696	     -3.65672023	    -22.73532748	      7.54613996	     16.11962808	     -4.65499973	      6.09952647	    -13.58111071	      8.35386520	     -1.48191045	    -10.64543039	     -4.27150983
      0.74150000	     -2.60962232	      8.66611865	     14.10688868	      0.09420984	      0.97395116	      0.27471376	     28.02559584	    -13.88273795	     -2.30959307	     -1.44037706	      9.62089470	    -14.20003989	     -3.64241925	    -22.87765102	      7.34542611	     16.06192665	     -5.02824298	      5.86719590	    -13.53670669	      8.37080413	     -1.41609402	    -10.52602598	     -4.29917846
      0.74566667	     -2.62196984	      8.54971542	     14.15235807	      0.10073175	      0.97342989	      0.27509946	     28.03330649	    -13.73953677	     -2.13807874	     -1.93819213	      9.52143318	    -14.42826983	     -3.59115778	    -22.97194190	      7.12972307	     15.90893286	     -5.43356460	      5.62852280	    -13.35862035	      8.45060573	     -1.30356441	    -10.36622313	     -4.35113305
      0.74983333	     -2.61631525	      8.43162949	     14.20708573	      0.10726692	      0.97297848	      0.27549697	     28.02903261	    -13.58908741	     -2.04096997	     -2.48357961	      9.32400962	    -14.68558002	     -3.45980436	    -23.04262534	      6.90695719	     15.70037435	     -5.92299665	      5.47340527	    -13.07649943	      8.68289624	     -1.20992747	    -10.22426221	     -4.36122403
      0.75400000	     -2.59439541	      8.29606476	     14.25126937	      0.11386915	      0.97258709	      0.27589238	     28.02611037	    -13.41250579	     -2.02878264	     -3.08877807	      9.17787850	    -14.77043767	     -3.43751532	    -23.14943306	      6.67067159	     15.60000237	     -6.35941354	      5.15821069	    -13.07573450	      8.72395753	     -1.13274297	    -10.05914621	     -4.37451348
      0.75816667	     -2.62948517	      8.13008180	     14.26486885	      0.12054877	      0.97212463	      0.27636733	     28.09156915	    -13.19038924	     -1.92688364	     -3.69838368	      8.90417947	    -14.97692233	     -3.24193510	    -23.14318888	      6.42751674	     15.31572565	     -6.88470185	      4.93245629	    -12.74846677	      9.09899507	     -0.95298875	     -9.85885264	     -4.34213255
      0.76233333	     -2.57932474	      7.94818820	     14.27409913	      0.12727242	      0.97182636	      0.27682694	     28.06459003	    -12.93830516	     -1.95415040	     -4.32264949	      8.59740879	    -15.04002063	     -0.93568034	    -23.22653893	      6.14840237	     15.06974484	     -7.38372853	      4.54152606	    -12.68351510	     13.79129577	     -0.88227907	     -9.62062369	     -4.38483377
      0.76650000	     -2.57987594	      7.76936988	     14.26420382	      0.13404331	      0.97149472	      0.27732245	     28.11616092	    -12.68413991	     -1.95335875	     -5.00008492	      8.30364230	    -15.09153558	     -0.94218645	    -23.25707598	      5.90100593	     14.87737512	     -7.88811176	      4.10690614	    -12.65845913	     13.80925052	     -0.72761154	     -9.40325853	     -4.37503705
      0.77066667	     -2.58698128	      7.56160625	     14.23876541	      0.14086577	      0.97118433	      0.27784983	     28.17884709	    -12.39168862	     -1.95136564	     -5.68232309	      7.94939622	    -15.12951908	     -0.93892652	    -23.24824327	      5.63400233	     14.62433832	     -8.43983557	      3.68777831	    -12.56310116	     13.85271933	     -0.56125488	     -9.15464839	     -4.35098236
      0.77483333	     -2.60072551	      7.33590602	     14.19698551	      0.14772185	      0.97089257	      0.27842404	     28.26354274	    -12.07119948	     -1.94603630	     -6.39152093	      7.57367913	    -15.16218508	     -0.92000522	    -23.19791917	      5.35734930	     14.30702412	     -9.04682075	      3.27642760	    -12.38245206	     13.93955909	     -0.39182765	     -8.89488081	     -4.30506567
      0.77900000	     -2.61918403	      7.10996859	     14.14696992	      0.15458834	      0.97061598	      0.27903050	     28.37193680	    -11.74589516	     -1.95622818	     -7.14263434	      7.19517231	    -15.23092817	     -0.85053593	    -23.08736113	      5.08188701	     13.85980829	     -9.76037286	      2.95466838	    -11.98427188	     14.18297857	     -0.18121864	     -8.63300574	     -4.19922003
      0.78316667	     -2.61355980	      6.87763075	     14.07740901	      0.16146274	      0.97042049	      0.27966456	     28.45291734	    -11.40187733	     -1.96561901	     -7.88344345	      6.78741422	    -15.18888645	     -0.69848078	    -22.98111169	      4.80369766	     13.39944975	    -10.49905137	      2.52678234	    -11.66543966	     14.67618092	     -0.02049582	     -8.36533234	     -4.13777490
      0.78733333	     -2.57458202	      6.62891121	     13.97978147	      0.16840513	      0.97031170	      0.28028909	     28.51072348	    -11.02694121	     -1.99507006	     -8.64969588	      6.40976603	    -15.12729737	     -0.66638245	    -22.95236043	      4.52285125	     13.09331208	    -11.14093241	      1.91696578	    -11.67667799	     14.78101698	      0.12415800	     -8.04694435	     -4.15040008
      0.79150000	     -2.57823205	      6.37240601	     13.87908997	      0.17532334	      0.97015104	      0.28098584	     28.63323535	    -10.64495075	     -1.97922037	     -9.45306947	      6.01085737	    -15.13882864	      1.24272497	    -22.78067409	      4.22880552	     12.52288852	    -11.95114168	      1.39261100	    -11.34126757	     21.05035802	      0.31561034	     -7.74569504	     -4.09766366
      0.79566667	     -2.56560256	      6.11231700	     13.77572232	      0.18226255	      0.97006586	      0.28164825	     28.74990887	    -10.26476730	     -2.04501783	    -10.29406035	      5.71388175	    -14.96038638	      1.22686351	    -22.62725370	      3.94176069	     12.06863345	    -12.76852358	      0.84204106	    -11.11668795	     21.10911679	      0.49708066	     -7.43089198	     -3.98854235
      0.79983333	     -2.51996170	      5.85174761	     13.63814103	      0.18920294	      0.97007250	      0.28236061	     28.82350268	     -9.85767730	     -2.03118008	    -11.10978401	      5.38675275	    -14.84127287	      1.22453877	    -22.50940142	      3.66228008	     11.63264060	    -13.56703356	      0.15839490	    -11.02926605	     21.14978920	      0.62586443	     -7.10526123	     -3.98192089
      0.80400000	     -2.51935511	      5.59141655	     13.51319750	      0.19609143	      0.97001889	      0.28310216	     28.97417921	     -9.46680037	     -2.04856006	    -11.99659913	      5.15582229	    -14.69179046	      1.23425153	    -22.24386711	      3.37385105	     11.00898852	    -14.56257533	     -0.33833150	    -10.54666814	     21.31743473	      0.81924815	     -6.79790985	     -3.86321282
